<svg xmlns="http://www.w3.org/2000/svg" width="1054" height="1054" fill="none" viewBox="0 0 1054 1054"><rect width="1024" height="1024" x="15.21" y="15" fill="url(#paint0_radial_325_3706)" rx="512"/><rect width="1024" height="1024" x="15.21" y="15" stroke="#130F08" stroke-width="29.184" rx="512"/><path fill="#1A1C20" stroke="#130F08" stroke-linejoin="round" stroke-width="25.941" d="M225.098 835.742C209.596 820.302 207.08 796.189 219.354 778.076C286.19 679.443 399.171 614.624 527.29 614.624C655.411 614.624 768.392 679.444 835.229 778.078C847.502 796.191 844.986 820.304 829.484 835.744C752.039 912.88 645.234 960.56 527.292 960.56C409.349 960.56 302.543 912.879 225.098 835.742Z"/><g filter="url(#filter0_d_325_3706)"><circle cx="527.211" cy="432.065" r="268.817" fill="url(#paint1_radial_325_3706)"/></g><path fill="#1A1C20" fill-rule="evenodd" d="M527.21 694.321C668.463 694.321 782.97 592.091 782.97 465.984C782.97 448.343 780.73 431.169 776.488 414.677C766.437 545.457 658.671 648.402 527.211 648.402C395.749 648.402 287.983 545.455 277.933 414.674C273.691 431.167 271.45 448.342 271.45 465.984C271.45 592.091 385.958 694.321 527.21 694.321Z" clip-rule="evenodd"/><circle cx="527.211" cy="432.065" r="268.817" stroke="#130F08" stroke-width="25.941"/><defs><filter id="filter0_d_325_3706" width="550.604" height="596.001" x="251.909" y="163.249" color-interpolation-filters="sRGB" filterUnits="userSpaceOnUse"><feFlood flood-opacity="0" result="BackgroundImageFix"/><feColorMatrix in="SourceAlpha" result="hardAlpha" type="matrix" values="0 0 0 0 0 0 0 0 0 0 0 0 0 0 0 0 0 0 127 0"/><feOffset dy="51.883"/><feGaussianBlur stdDeviation="3.243"/><feComposite in2="hardAlpha" operator="out"/><feColorMatrix type="matrix" values="0 0 0 0 0 0 0 0 0 0 0 0 0 0 0 0 0 0 0.25 0"/><feBlend in2="BackgroundImageFix" mode="normal" result="effect1_dropShadow_325_3706"/><feBlend in="SourceGraphic" in2="effect1_dropShadow_325_3706" mode="normal" result="shape"/></filter><radialGradient id="paint0_radial_325_3706" cx="0" cy="0" r="1" gradientTransform="translate(527.21 15) rotate(90) scale(1024 1024)" gradientUnits="userSpaceOnUse"><stop stop-color="#F1F1F1"/><stop offset=".37" stop-color="silver"/><stop offset="1" stop-color="#A0A0A0"/></radialGradient><radialGradient id="paint1_radial_325_3706" cx="0" cy="0" r="1" gradientTransform="translate(527.211 194.886) rotate(90) scale(505.996 932.891)" gradientUnits="userSpaceOnUse"><stop stop-color="#3A3E44"/><stop offset=".343" stop-color="#242627"/><stop offset="1" stop-color="#1D1E1F"/></radialGradient></defs></svg>